<svg width="48.000000" height="48.000000" viewBox="0 0 48 48" fill="none" xmlns="http://www.w3.org/2000/svg" xmlns:xlink="http://www.w3.org/1999/xlink">
	<desc>
			Created with Pixso.
	</desc>
	<defs/>
	<path id="Vector" d="M10.4309 6.53882L1.77148 11.1644C1.625 11.2419 1.48438 11.3304 1.35083 11.4292L23.4937 23.0502L32.7661 18.4343L10.4309 6.53882ZM47.9956 14.0099L36.918 19.5244L36.918 25.7369C36.918 26.5183 36.2886 27.1519 35.5122 27.1519C34.7358 27.1519 34.1064 26.5183 34.1064 25.7369L34.1064 20.9241L24.8826 25.5156L24.8826 48C24.9116 47.9865 24.9407 47.974 24.9695 47.9597L46.1738 37.1461C47.3005 36.5792 48 35.4402 48 34.1721L48 14.1349C48 14.0929 47.9971 14.0515 47.9956 14.0099ZM46.1738 11.1608L24.978 0.351807L24.9692 0.34729C24.0254 -0.12561 22.9041 -0.11499 21.969 0.37561L13.4321 4.93567L35.873 16.8876L46.7048 11.4955C46.5386 11.3674 46.3608 11.2554 46.1738 11.1608ZM0.0065918 13.915C0.00244141 13.98 0.000244141 14.0452 0 14.1102L0 34.1967C0 35.4386 0.678711 36.5667 1.77148 37.1426L21.9602 47.9266L21.9692 47.9314C22.0027 47.9491 22.0371 47.9646 22.071 47.981L22.071 25.4949L0.0065918 13.915Z" fill="#FFFFFF" fill-opacity="1.000000" fill-rule="nonzero"/>
</svg>
