<svg width="48.000000" height="48.000000" viewBox="0 0 48 48" fill="none" xmlns="http://www.w3.org/2000/svg" xmlns:xlink="http://www.w3.org/1999/xlink">
	<desc>
			Created with Pixso.
	</desc>
	<defs>
		<clipPath id="clip2_227">
			<rect id="icon/online_price" width="48.000000" height="48.000000" fill="white" fill-opacity="0"/>
		</clipPath>
	</defs>
	<rect id="icon/online_price" width="48.000000" height="48.000000" fill="#FFFFFF" fill-opacity="0"/>
	<g clip-path="url(#clip2_227)">
		<path id="Exclude" d="M47.2239 27.4907L45.3984 24.796C45.2378 24.559 45.1523 24.2822 45.1523 23.9995C45.1523 23.7167 45.2378 23.4399 45.3984 23.2029L47.2249 20.5071C48.8875 18.0483 47.7622 14.7548 44.9248 13.7133L41.7998 12.5638C41.5247 12.4623 41.2861 12.2864 41.113 12.0575C40.9397 11.8285 40.8394 11.5562 40.8237 11.2736L40.6519 8.06384C40.4958 5.14209 37.5728 3.10498 34.6331 3.86377L31.4006 4.698C30.821 4.84692 30.2007 4.65417 29.824 4.20532L27.7192 1.70544C25.8025 -0.570312 22.1924 -0.567017 20.2798 1.70642L18.175 4.20532C17.99 4.42517 17.7427 4.58862 17.4626 4.67603C17.1829 4.76355 16.8826 4.77112 16.5984 4.698L13.3669 3.86377C10.4312 3.10413 7.50342 5.14001 7.34741 8.06384L7.17529 11.2748C7.15991 11.5573 7.05981 11.8293 6.88672 12.0581C6.71362 12.287 6.47534 12.4626 6.20044 12.564L3.07544 13.7124C0.234375 14.7573 -0.887207 18.0522 0.776367 20.5093L2.60059 23.2019C2.76123 23.4392 2.84668 23.7159 2.84692 23.9989C2.84717 24.2819 2.76196 24.5587 2.60181 24.7961L0.776367 27.4908C-0.886475 29.9423 0.232666 33.2433 3.07544 34.2867L6.20044 35.4362C6.47534 35.5375 6.71362 35.7133 6.88672 35.9421C7.05981 36.1709 7.15991 36.443 7.17529 36.7255L7.34741 39.9362C7.50317 42.8546 10.4219 44.8949 13.3669 44.1364L16.5981 43.301C17.176 43.151 17.7961 43.3439 18.176 43.7947L20.2798 46.2936C22.1914 48.5657 25.8003 48.5715 27.7202 46.2946L29.824 43.7947C30.009 43.575 30.2566 43.4114 30.5364 43.3237C30.8162 43.2361 31.1165 43.2283 31.4009 43.301L34.6353 44.1373C37.5715 44.8911 40.4956 42.8622 40.6519 39.9362L40.8237 36.7264C40.8391 36.4437 40.9395 36.1714 41.1128 35.9424C41.2859 35.7134 41.5247 35.5376 41.7998 35.4362L44.9248 34.2877C47.7646 33.2432 48.8875 29.9476 47.2239 27.4907ZM30.3293 17.3137L32 13.4895C31.1169 12.694 30.1265 12.0823 29.0286 11.6544Q27.3938 11 25.4844 11Q23.4243 11 21.6787 11.7412Q20.8362 12.0991 20.0669 12.6298Q19.9873 12.6843 19.9092 12.7406Q17.6709 14.349 16.3794 17.2751Q15.7332 18.7397 15.3994 20.4834L12.9426 20.4834L12 23.2167L15.0767 23.2167Q15.043 23.8562 15.043 24.5256Q15.043 25.1682 15.0742 25.7833L12.9426 25.7833L12 28.5552L15.3989 28.5552Q15.7327 30.2975 16.3794 31.7633C17.2705 33.7738 18.4995 35.318 20.0669 36.3959C21.6421 37.4653 23.448 38 25.4844 38Q27.0117 38 28.4153 37.5835Q28.7007 37.4988 28.981 37.3969C30.0947 36.9948 31.0771 36.3959 31.9285 35.6003L30.2339 31.7761C29.8918 32.0756 29.4822 32.375 29.0049 32.6744C28.5354 32.9739 28.0063 33.2219 27.4177 33.4187C26.8289 33.6155 26.1846 33.7139 25.4844 33.7139C24.2991 33.7139 23.2529 33.3845 22.3459 32.7257C21.4392 32.067 20.7271 31.0575 20.21 29.6973C20.0769 29.3414 19.9612 28.9607 19.8628 28.5552L25.5562 28.5552L26.7852 25.7833L19.4795 25.7833C19.4573 25.3799 19.4463 24.9607 19.4463 24.5256Q19.4463 23.8455 19.4824 23.2167L27.8352 23.2167L28.9929 20.4834L19.866 20.4834Q20.0125 19.8822 20.21 19.3541C20.7271 17.9852 21.4392 16.9672 22.3459 16.2999C23.2529 15.624 24.2991 15.2861 25.4844 15.2861C26.1846 15.2861 26.8289 15.3888 27.4177 15.5941C28.0063 15.7994 28.5435 16.056 29.0286 16.364C29.5139 16.672 29.9475 16.9886 30.3293 17.3137Z" clip-rule="evenodd" fill="#FFFFFF" fill-opacity="1.000000" fill-rule="evenodd"/>
	</g>
</svg>
