<svg width="48.000000" height="48.000000" viewBox="0 0 48 48" fill="none" xmlns="http://www.w3.org/2000/svg" xmlns:xlink="http://www.w3.org/1999/xlink">
	<desc>
			Created with Pixso.
	</desc>
	<defs>
		<clipPath id="clip2_235">
			<rect id="icon/fastiness" width="48.000000" height="48.000000" fill="white" fill-opacity="0"/>
		</clipPath>
	</defs>
	<rect id="icon/fastiness" width="48.000000" height="48.000000" fill="#FFFFFF" fill-opacity="0"/>
	<g clip-path="url(#clip2_235)">
		<path id="Vector" d="M24 -0.0936279C15.8947 -0.0936279 9.47583 5.09607 6.83057 12.7064L1.8595 12.7064C1.08215 12.7064 0.453247 13.422 0.453247 14.3064C0.453247 15.1908 1.08215 15.9064 1.8595 15.9053L5.99451 15.9053C5.60181 17.931 5.45264 20.0737 5.58484 22.3064L1.40625 22.3064C0.629028 22.3064 0 23.022 0 23.9064C0 24.7908 0.629028 25.5063 1.40625 25.5063L5.96619 25.5063C6.35925 27.7362 7.00696 29.8815 7.88 31.9064L3.72717 31.9064C2.94983 31.9064 2.32092 32.6219 2.32092 33.5063C2.32092 34.3907 2.94983 35.1063 3.72717 35.1063L9.48987 35.1063C13.9374 42.7023 21.4685 47.9064 29.5156 47.9064C41.2491 47.9064 49.4583 37.0364 47.7832 23.6798C46.1365 10.572 35.5288 -0.0936279 24 -0.0936279ZM28.8217 41.5063L28.8202 41.5063L28.8198 41.5061C20.3943 41.505 12.5618 33.7118 11.3575 24.1329C10.1279 14.3267 16.1952 6.3064 24.8033 6.3064C33.2299 6.3064 41.0631 14.1001 42.2675 23.6798C43.4971 33.4861 37.4298 41.5063 28.8217 41.5063Z" fill="#FFFFFF" fill-opacity="1.000000" fill-rule="nonzero"/>
		<path id="Vector" d="M36.6558 23.9065C36.6558 23.0221 37.2847 22.3064 38.062 22.3064L39.0906 22.3064C37.5326 15.7219 32.3328 10.5358 26.4486 9.69312L26.5978 10.8798C26.7076 11.7548 26.1735 12.5658 25.4044 12.6908C25.337 12.7018 25.2698 12.7063 25.2039 12.7063C24.5144 12.7063 23.913 12.1313 23.8127 11.3329L23.6006 9.64575C17.7356 10.3057 13.8171 15.6152 14.0895 22.3064L15.562 22.3064C16.3392 22.3064 16.9683 23.022 16.9683 23.9064C16.9683 24.7908 16.3392 25.5063 15.562 25.5063L14.5333 25.5063C16.0914 32.0908 21.2911 37.277 27.1753 38.1196L27.0262 36.933C26.9163 36.058 27.4506 35.2471 28.2195 35.1221C28.9913 34.9893 29.7013 35.6047 29.8113 36.4797L30.0234 38.1669C35.8884 37.507 39.8069 32.1973 39.5344 25.5063L38.062 25.5063C37.2847 25.5065 36.6558 24.7908 36.6558 23.9065ZM34.2991 31.3596C33.7852 32.028 32.8954 32.09 32.3147 31.5111L25.8864 25.1111C25.6332 24.8589 25.4675 24.512 25.4196 24.1331L24.6162 17.733C24.5062 16.858 25.0405 16.047 25.8094 15.922C26.569 15.7954 27.2913 16.4048 27.4012 17.2798L28.1304 23.0923L34.166 29.1017C34.751 29.6846 34.8101 30.6954 34.2991 31.3596Z" fill="#FFFFFF" fill-opacity="1.000000" fill-rule="nonzero"/>
	</g>
</svg>
