<svg width="150.000000" height="138.000000" viewBox="0 0 150 138" fill="none" xmlns="http://www.w3.org/2000/svg" xmlns:xlink="http://www.w3.org/1999/xlink">
	<desc>
			Created with Pixso.
	</desc>
	<defs/>
	<path id="Vector" d="M143.322 111.472L6.59045 111.472C2.98767 111.472 0 108.724 0 105.328L0 19.3107C0 15.9961 2.98767 13.2474 6.59045 13.2474L143.322 13.2474C147.012 13.2474 150 15.9961 150 19.3107L150 105.328C150 108.724 147.012 111.472 143.322 111.472ZM141.213 99.052L8.78735 99.052L8.78735 24.7272C8.78735 22.8678 10.4569 21.3318 12.478 21.3318L137.522 21.3318C139.543 21.3318 141.213 22.8678 141.213 24.7272L141.213 99.052ZM63.3568 125.297C62.5659 125.297 61.8629 124.731 61.8629 124.003L61.8629 114.14L88.1371 114.14L88.1371 124.003C88.1371 124.731 87.4341 125.297 86.6432 125.297L63.3568 125.297Z" fill="#4C4C4C" fill-opacity="1.000000" fill-rule="evenodd"/>
	<path id="Vector" d="M94.0706 126.774L55.8719 126.774C54.8364 126.774 53.9735 125.546 53.9735 124.073C53.9735 122.518 54.8364 121.29 55.8719 121.29L94.0706 121.29C95.1636 121.29 96.0265 122.518 96.0265 124.073C96.0265 125.546 95.1636 126.774 94.0706 126.774Z" fill="#4C4C4C" fill-opacity="1.000000" fill-rule="evenodd"/>
	<path id="Vector" d="M78.3094 39.5656C78.0237 39.7267 77.7578 39.9211 77.5173 40.1449L76.1647 41.4039L82.6669 47.3251C83.5769 48.1538 84.2683 49.2086 84.6661 50.3755C85.064 51.5424 85.1615 52.8011 84.9481 54.0156L81.2231 75.2178C80.6073 78.7223 77.5894 81.266 74.0469 81.266C73.6229 81.266 73.1952 81.2284 72.7758 81.1541L71.5883 80.944L71.8519 82.4443C72.2083 84.4734 73.9663 85.9009 75.9504 85.9009C76.1906 85.9009 98.2223 82.0243 98.2223 82.0243C100.489 81.6232 102.002 79.4542 101.602 77.1797L96.4036 47.5902C96.2831 46.9045 95.994 46.2599 95.5624 45.7148C95.1309 45.1697 94.5704 44.7413 93.9321 44.4686L81.9827 39.3635C81.797 39.2844 81.606 39.219 81.4108 39.1676L80.8929 35.9152L80.5392 33.6932C80.403 32.838 79.6014 32.2556 78.7498 32.3922C77.8975 32.5288 77.3171 33.3329 77.4532 34.1882L77.7986 36.3561L78.3094 39.5656ZM64.5602 57.1699L65.4144 52.308C65.3976 52.3098 65.3813 52.3113 65.3643 52.3132C64.2412 52.4469 63.5356 53.307 63.2498 54.0674C62.9434 54.8826 63.0277 55.6964 63.47 56.1913C63.7482 56.5027 64.1044 56.8232 64.5602 57.1699ZM66.0688 60.6248L64.946 67.0153C66.4709 66.8503 67.5436 65.7388 67.95 64.5895C68.1501 64.0237 68.6367 62.083 66.4956 60.8689C66.353 60.7881 66.2107 60.7068 66.0688 60.6248Z" fill="#57A365" fill-opacity="1.000000" fill-rule="nonzero"/>
	<path id="Vector" d="M67.3695 39.98C67.1333 40.0302 66.9019 40.101 66.6779 40.1914L54.6606 45.0656C54.0055 45.3313 53.4283 45.76 52.9836 46.3113C52.5388 46.8624 52.2411 47.5182 52.1184 48.2167L48.3951 69.4087C47.9956 71.6832 49.5088 73.8522 51.775 74.2533L73.3184 78.0657C73.5588 78.1084 73.8026 78.1299 74.0469 78.1299C76.0308 78.1299 77.7891 76.7023 78.1454 74.6735L81.8704 53.4713C81.9927 52.7754 81.9373 52.0597 81.7092 51.3911C81.4813 50.7225 81.0883 50.1228 80.5668 49.6481L71.0389 40.9714C70.8553 40.8046 70.6573 40.6544 70.4471 40.5228L71.0131 37.3015L71.5558 34.2131C71.7056 33.3602 71.1381 32.5469 70.2883 32.3965C69.4388 32.2456 68.6281 32.8156 68.4783 33.6686L67.9357 36.7573L67.3695 39.98Z" fill="#57A365" fill-opacity="1.000000" fill-rule="evenodd"/>
	<path id="€" d="M69.4988 57.0885L68.5331 58.8009L57.3541 57.5905L58.1484 55.8595L69.4988 57.0885ZM67.6702 60.5244L66.7045 62.2368L57 61.1862L57.7943 59.4552L67.6702 60.5244ZM72 52.4535L70.9929 54.2341C70.6614 53.8469 70.3051 53.5055 69.9241 53.2098C69.5431 52.9143 69.1365 52.6733 68.7042 52.4873C68.2721 52.3011 67.8102 52.1815 67.3187 52.1283C66.347 52.0231 65.4449 52.2101 64.6122 52.6892C63.7794 53.1685 63.0834 53.9319 62.5238 54.9796C61.9644 56.0275 61.6061 57.3483 61.4491 58.9424C61.2921 60.5364 61.3854 61.9062 61.7289 63.0518C62.0724 64.1973 62.6051 65.0939 63.3268 65.7413C64.0486 66.3888 64.8953 66.7651 65.8669 66.8702C66.3699 66.9247 66.851 66.9072 67.3103 66.8176C67.7754 66.7286 68.2141 66.5853 68.6263 66.3877C69.0443 66.1908 69.4337 65.9603 69.7948 65.6967L70.4679 67.6592C69.8093 68.1875 69.0621 68.5608 68.2262 68.7792C67.3909 68.9916 66.536 69.0504 65.6615 68.9557C64.2556 68.8035 63.0475 68.285 62.0371 67.4004C61.0325 66.5165 60.2911 65.3339 59.8132 63.8528C59.3409 62.3723 59.2004 60.6613 59.3916 58.7196C59.5829 56.778 60.0538 55.1332 60.8047 53.785C61.5612 52.4376 62.5173 51.4388 63.673 50.7888C64.8345 50.1393 66.1182 49.8906 67.524 50.0428C68.4327 50.1412 69.2653 50.3979 70.0215 50.813C70.7834 51.2285 71.443 51.7754 72 52.4535Z" fill="#FFFFFF" fill-opacity="1.000000" fill-rule="nonzero"/>
</svg>
