<svg width="150.000000" height="138.000000" viewBox="0 0 150 138" fill="none" xmlns="http://www.w3.org/2000/svg" xmlns:xlink="http://www.w3.org/1999/xlink">
	<desc>
			Created with Pixso.
	</desc>
	<defs/>
	<path id="Vector" d="M143.322 111.473L6.59058 111.473C2.98779 111.473 0 108.724 0 105.329L0 19.3113C0 15.9967 2.98779 13.248 6.59058 13.248L143.322 13.248C147.012 13.248 150 15.9967 150 19.3113L150 105.329C150 108.724 147.012 111.473 143.322 111.473ZM141.213 99.0526L8.78735 99.0526L8.78735 24.7278C8.78735 22.8684 10.457 21.3324 12.478 21.3324L137.522 21.3324C139.543 21.3324 141.213 22.8684 141.213 24.7278L141.213 99.0526ZM63.3567 125.297C62.5659 125.297 61.8628 124.731 61.8628 124.004L61.8628 114.141L88.137 114.141L88.137 124.004C88.137 124.731 87.4341 125.297 86.6433 125.297L63.3567 125.297Z" fill="#4C4C4C" fill-opacity="1.000000" fill-rule="evenodd"/>
	<path id="Vector" d="M94.0706 126.774L55.8721 126.774C54.8367 126.774 53.9736 125.547 53.9736 124.073C53.9736 122.519 54.8367 121.291 55.8721 121.291L94.0706 121.291C95.1636 121.291 96.0266 122.519 96.0266 124.073C96.0266 125.547 95.1636 126.774 94.0706 126.774Z" fill="#4C4C4C" fill-opacity="1.000000" fill-rule="evenodd"/>
	<path id="Vector" d="M76.7478 67.3766L74.6611 64.8137C75.1619 63.9871 75.5793 62.995 75.8296 62.0857L79.0847 61.755C79.5022 61.6722 79.8359 61.3416 79.8359 60.9282L79.8359 56.8774C79.8359 56.464 79.5022 56.1333 79.0847 56.0507L75.8296 55.6373C75.5793 54.6453 75.1619 53.7358 74.6611 52.8265L76.7478 50.2637C76.9983 49.933 76.9983 49.437 76.6643 49.189L73.7432 46.3782C73.4092 46.0475 72.9919 46.0475 72.658 46.2955L70.0708 48.3623C69.2361 47.8662 68.2344 47.4529 67.3164 47.2048L66.9824 43.9807C66.8992 43.5674 66.5652 43.2367 66.1479 43.2367L62.0581 43.2367C61.6409 43.2367 61.3069 43.5674 61.2236 43.9807L60.8062 47.2048C59.8047 47.4529 58.8865 47.8662 57.9685 48.3623L55.3811 46.2955C55.0471 46.0475 54.5464 46.0475 54.2961 46.3782L51.4583 49.189C51.1245 49.5197 51.1245 49.933 51.3748 50.2637L53.5449 52.8265C53.0442 53.7358 52.6267 54.6453 52.3765 55.6373L49.1213 56.0507C48.7039 56.1333 48.3701 56.464 48.3701 56.8774L48.3701 60.9282C48.3701 61.3416 48.7039 61.6722 49.1213 61.755L52.3765 62.0857C52.6267 63.0776 53.0442 63.9871 53.5449 64.8137L51.4583 67.3766C51.2078 67.7073 51.2078 68.2032 51.5417 68.4513L54.3794 71.3447C54.7134 71.6754 55.1306 71.6754 55.4646 71.4275L58.052 69.3607C58.97 69.8567 59.8882 70.27 60.8896 70.5181L61.3069 73.7422C61.3069 74.1556 61.7244 74.4863 62.1416 74.4863L66.2314 74.4863C66.6487 74.4863 66.9824 74.1556 67.0659 73.7422L67.3999 70.5181C68.4014 70.27 69.3196 69.8567 70.1541 69.3607L72.7415 71.4275C73.0754 71.6754 73.5762 71.6754 73.8267 71.3447L76.7478 68.4513C76.9983 68.2032 77.0815 67.7073 76.7478 67.3766ZM64.1448 63.6564C61.3904 63.6564 59.137 61.4243 59.137 58.6962C59.137 55.968 61.3904 53.7358 64.1448 53.7358C66.8992 53.7358 69.1526 55.968 69.1526 58.6962C69.1526 61.4243 66.8992 63.6564 64.1448 63.6564Z" fill="#57A365" fill-opacity="1.000000" fill-rule="nonzero"/>
	<path id="Vector" d="M100.953 70.766L98.199 70.4353C97.9487 69.6913 97.6982 68.9473 97.281 68.2032L98.9502 66.0537C99.2007 65.723 99.2007 65.2271 98.8667 64.979L96.4463 62.5815C96.1125 62.2509 95.6951 62.2509 95.3613 62.4989L93.1912 64.1523C92.5234 63.739 91.689 63.491 90.9377 63.2429L90.6038 60.5148C90.5203 60.1014 90.1865 59.7708 89.7693 59.7708L86.3472 59.7708C85.9299 59.7708 85.5959 60.1014 85.5125 60.5148L85.1787 63.2429C84.4275 63.491 83.6763 63.739 82.925 64.1523L80.7551 62.4989C80.4211 62.2509 79.9204 62.2509 79.6702 62.5815L77.2495 64.979C76.9158 65.3097 76.9158 65.723 77.1663 66.0537L78.8354 68.2032C78.4182 68.9473 78.0842 69.6913 77.9172 70.4353L75.1631 70.766C74.7456 70.766 74.4119 71.1793 74.4119 71.5927L74.4119 75.0649C74.4119 75.4783 74.7456 75.809 75.1631 75.8916L77.9172 76.2223C78.1677 76.9663 78.4182 77.7103 78.8354 78.4543L77.1663 80.6039C76.9158 80.9346 76.9158 81.4305 77.2495 81.6786L79.6702 84.076C80.0039 84.4067 80.4211 84.4067 80.7551 84.1587L82.925 82.5052C83.6763 82.9186 84.4275 83.1666 85.1787 83.4147L85.5125 86.0601C85.5959 86.4735 85.9299 86.8042 86.3472 86.8042L89.7693 86.8042C90.1865 86.8042 90.5203 86.4735 90.6038 86.0601L90.9377 83.4147C91.689 83.1666 92.4399 82.9186 93.1912 82.5052L95.3613 84.1587C95.6951 84.4067 96.1958 84.4067 96.4463 84.076L98.8667 81.6786C99.2007 81.3479 99.2007 80.9346 98.9502 80.6039L97.281 78.4543C97.6982 77.7103 97.9487 76.9663 98.199 76.2223L100.953 75.8916C101.371 75.809 101.705 75.4783 101.705 75.0649L101.705 71.5927C101.705 71.1793 101.371 70.766 100.953 70.766ZM88.0999 77.2144C85.7629 77.2144 83.9268 75.3129 83.9268 73.0808C83.9268 70.766 85.7629 68.9473 88.0999 68.9473C90.437 68.9473 92.2732 70.766 92.2732 73.0808C92.2732 75.3955 90.437 77.2144 88.0999 77.2144ZM76.7488 48.1141L79.0859 48.3622C79.2527 49.0236 79.5032 49.6023 79.8369 50.2637L78.4182 51.9998C78.1677 52.3304 78.1677 52.8264 78.5017 53.0745L80.6716 55.2239C81.0056 55.5546 81.4229 55.5546 81.7566 55.3065L83.5928 53.9011C84.177 54.2318 84.8447 54.4799 85.5125 54.6451L85.7629 56.96C85.8464 57.3733 86.1802 57.704 86.5977 57.704L89.6023 57.704C90.0195 57.704 90.3535 57.3733 90.437 56.96L90.6873 54.6451C91.355 54.4799 91.9392 54.2318 92.6069 53.9011L94.4431 55.3065C94.7771 55.5546 95.2778 55.5546 95.5281 55.2239L97.6982 53.0745C98.0322 52.7438 98.032 52.3304 97.7817 51.9998L96.3628 50.1809C96.6968 49.6023 96.947 48.9409 97.114 48.2795L99.4509 48.0315C99.8684 48.0315 100.202 47.6182 100.202 47.2048L100.202 44.146C100.202 43.7327 99.8684 43.402 99.4509 43.3193L97.114 43.0713C96.947 42.4099 96.6968 41.8312 96.3628 41.1698L97.7817 39.3511C98.032 39.0204 98.0322 38.5244 97.6982 38.2764L95.5281 36.127C95.1943 35.7963 94.7771 35.7963 94.4431 36.0442L92.5234 37.615C91.9392 37.2843 91.2715 37.0363 90.6038 36.871L90.3535 34.5562C90.3535 34.1428 90.0195 33.8121 89.6023 33.8121L86.5977 33.8121C86.1802 33.8121 85.8464 34.1428 85.7629 34.5562L85.5125 36.871C84.8447 37.0363 84.2605 37.2843 83.5928 37.615L81.7566 36.127C81.4229 35.8789 80.9221 35.8789 80.6716 36.2096L78.5017 38.359C78.1677 38.6897 78.1677 39.103 78.4182 39.4337L79.8369 41.2526C79.5032 41.8312 79.2527 42.4926 79.0859 43.1539L76.7488 43.402C76.3315 43.4846 75.9976 43.8153 75.9976 44.2286L75.9976 47.2875C75.9976 47.7008 76.3315 48.0315 76.7488 48.1141ZM88.0999 42.0792C90.103 42.0792 91.689 43.6499 91.689 45.634C91.689 47.6182 90.103 49.189 88.0999 49.189C86.0967 49.189 84.511 47.6182 84.511 45.634C84.511 43.6499 86.0967 42.0792 88.0999 42.0792Z" fill="#57A365" fill-opacity="1.000000" fill-rule="nonzero"/>
</svg>
