<svg width="150.000000" height="138.000000" viewBox="0 0 150 138" fill="none" xmlns="http://www.w3.org/2000/svg" xmlns:xlink="http://www.w3.org/1999/xlink">
	<desc>
			Created with Pixso.
	</desc>
	<defs>
		<clipPath id="clip0_173">
			<rect id="icon/upload" width="150.000000" height="138.000000" fill="white" fill-opacity="0"/>
		</clipPath>
	</defs>
	<rect id="icon/upload" width="150.000000" height="138.000000" fill="#FFFFFF" fill-opacity="0"/>
	<g clip-path="url(#clip0_173)">
		<path id="Vector" d="M143.322 110.513L6.59058 110.513C2.98779 110.513 0 107.765 0 104.369L0 18.3514C0 15.0369 2.98779 12.2882 6.59058 12.2882L143.322 12.2882C147.012 12.2882 150 15.0369 150 18.3514L150 104.369C150 107.765 147.012 110.513 143.322 110.513ZM141.213 98.0928L8.78735 98.0928L8.78735 23.7679C8.78735 21.9086 10.457 20.3726 12.478 20.3726L137.522 20.3726C139.543 20.3726 141.213 21.9086 141.213 23.7679L141.213 98.0928ZM63.3567 124.337C62.5659 124.337 61.8628 123.771 61.8628 123.044L61.8628 113.181L88.137 113.181L88.137 123.044C88.137 123.771 87.4341 124.337 86.6433 124.337L63.3567 124.337Z" fill="#4C4C4C" fill-opacity="1.000000" fill-rule="evenodd"/>
		<path id="Vector" d="M94.0706 125.815L55.8721 125.815C54.8367 125.815 53.9736 124.587 53.9736 123.114C53.9736 121.559 54.8367 120.331 55.8721 120.331L94.0706 120.331C95.1636 120.331 96.0266 121.559 96.0266 123.114C96.0266 124.587 95.1636 125.815 94.0706 125.815Z" fill="#4C4C4C" fill-opacity="1.000000" fill-rule="evenodd"/>
		<path id="Vector" d="M93.0764 48.1451C91.3552 44.9221 88.8552 42.1825 85.7856 40.1697C82.2544 37.8547 78.1499 36.631 73.9155 36.631C63.3884 36.631 54.467 44.1624 52.5586 54.3903C46.4922 55.5192 41.9441 60.8696 41.9441 67.2142C41.9441 74.4073 47.7744 80.2593 54.9404 80.2593L73.4551 80.2593L73.4551 63.7461L69.2998 67.9172C68.5334 68.6855 67.292 68.6855 66.5259 67.9172C65.7598 67.1481 65.7598 65.9019 66.5259 65.1329L74.0298 57.6016C74.7954 56.8325 76.0369 56.8325 76.803 57.6016L84.3069 65.1329C85.0732 65.902 85.0732 67.1481 84.3069 67.9172C84.125 68.1002 83.9089 68.2454 83.6709 68.3444C83.4331 68.4434 83.178 68.4941 82.9204 68.4939C82.4182 68.4939 81.9163 68.3016 81.5332 67.9172L77.3777 63.7461L77.3777 80.2593L92.8906 80.2593C101.712 80.2593 108.889 73.056 108.889 64.2014C108.889 55.4094 101.813 48.2451 93.0764 48.1451Z" fill="#57A365" fill-opacity="1.000000" fill-rule="nonzero"/>
	</g>
</svg>
