<svg width="14.000000" height="14.000000" viewBox="0 0 14 14" fill="none" xmlns="http://www.w3.org/2000/svg" xmlns:xlink="http://www.w3.org/1999/xlink">
	<desc>
			Created with Pixso.
	</desc>
	<defs>
		<clipPath id="clip0_97">
			<rect id="Frame" width="14.000000" height="14.000000" fill="white" fill-opacity="0"/>
		</clipPath>
	</defs>
	<rect id="Frame" width="14.000000" height="14.000000" fill="#FFFFFF" fill-opacity="0"/>
	<g clip-path="url(#clip0_97)">
		<path id="Vector" d="M4.52686 3.87958L6.14893 2.25684L6.16113 10.2085C6.16113 10.6917 6.55298 11.0834 7.03613 11.0834C7.51929 11.0834 7.91113 10.6917 7.91113 10.2085L7.89893 2.26678L9.51172 3.87964C9.84741 4.22717 10.4014 4.23682 10.749 3.90112C11.0964 3.56543 11.1062 3.01147 10.7705 2.66394C10.7634 2.65662 10.7561 2.64948 10.749 2.6424L8.87524 0.768799C7.85034 -0.256287 6.18823 -0.256287 5.16309 0.768799L5.16309 0.768799L3.28955 2.6424C2.95386 2.98999 2.96338 3.54388 3.31104 3.87958C3.65015 4.20709 4.18774 4.20709 4.52686 3.87958Z" fill="#5C6C5F" fill-opacity="1.000000" fill-rule="nonzero"/>
		<path id="Vector" d="M13.1248 8.4585C12.6414 8.4585 12.2498 8.85022 12.2498 9.33344L12.2498 12.0114C12.2495 12.0746 12.2244 12.1353 12.1797 12.1799C12.135 12.2247 12.0745 12.2498 12.0112 12.25L1.98877 12.25C1.92554 12.2498 1.86499 12.2247 1.82031 12.1799C1.77539 12.1353 1.75024 12.0746 1.75024 12.0114L1.75024 9.33344C1.75024 8.85022 1.3584 8.4585 0.875244 8.4585C0.39209 8.4585 0.000244141 8.85022 0.000244141 9.33344L0.000244141 12.0114C0.00146484 13.1091 0.891113 13.9986 1.98877 13.9999L12.0112 13.9999C13.1089 13.9986 13.9983 13.1091 13.9995 12.0114L13.9995 9.33344C13.9998 8.85022 13.6079 8.4585 13.1248 8.4585Z" fill="#5C6C5F" fill-opacity="1.000000" fill-rule="nonzero"/>
	</g>
</svg>
