<svg width="22.053955" height="23.915588" viewBox="0 0 22.054 23.9156" fill="none" xmlns="http://www.w3.org/2000/svg" xmlns:xlink="http://www.w3.org/1999/xlink">
	<desc>
			Created with Pixso.
	</desc>
	<defs/>
	<path id="Vector" d="M19.554 4.14755L13.5271 0.667572C12.7664 0.230194 11.9043 0 11.0271 0C10.1497 0 9.2876 0.230194 8.5271 0.667572L2.5 4.14755C1.74097 4.58746 1.11035 5.21887 0.671875 5.9787C0.233154 6.73853 0.00146484 7.60019 0 8.47757L0 15.4376C0.00146484 16.3151 0.233154 17.1768 0.671875 17.9368C1.1106 18.6968 1.74097 19.3284 2.5 19.7686L8.5271 23.2476C9.2876 23.6852 10.1497 23.9156 11.0271 23.9156C11.9045 23.9156 12.7666 23.6852 13.5271 23.2476L19.554 19.7686C20.3132 19.3284 20.9436 18.6968 21.3823 17.9368C21.8208 17.1768 22.0525 16.3151 22.054 15.4376L22.054 8.47757C22.0525 7.60019 21.821 6.73853 21.3823 5.9787C20.9436 5.21887 20.3132 4.58746 19.554 4.14755ZM9.5271 2.40057C9.98315 2.13727 10.5005 1.99863 11.0271 1.99863C11.5537 1.99863 12.071 2.13727 12.5271 2.40057L18.554 5.87955C18.7068 5.97617 18.8503 6.08664 18.9829 6.20956L12.79 9.78455C12.2539 10.0936 11.6458 10.2563 11.0271 10.2563C10.4082 10.2563 9.80005 10.0936 9.26392 9.78455L3.07104 6.20956C3.20361 6.08664 3.34717 5.97617 3.5 5.87955L9.5271 2.40057ZM3.5 18.0356C3.04419 17.7715 2.66577 17.3923 2.40259 16.936C2.13916 16.4797 2.00049 15.9623 2 15.4355L2 8.47757C2.00684 8.29739 2.03076 8.11829 2.07104 7.94257L8.26392 11.5175C8.81104 11.8287 9.40723 12.0435 10.0271 12.1526L10.0271 21.7216C9.85425 21.6687 9.68677 21.5997 9.5271 21.5156L3.5 18.0356ZM20.054 15.4355C20.0535 15.9623 19.9148 16.4797 19.6514 16.936C19.3882 17.3923 19.0098 17.7715 18.554 18.0356L12.5271 21.5156C12.3672 21.5997 12.1997 21.6687 12.0271 21.7216L12.0271 12.1526C12.6467 12.0435 13.2432 11.8287 13.79 11.5175L19.9829 7.94257C20.0232 8.11829 20.0471 8.29739 20.054 8.47757L20.054 15.4355Z" fill="#FFFFFF" fill-opacity="1.000000" fill-rule="nonzero"/>
</svg>
