<svg width="22.864990" height="32.130127" viewBox="0 0 22.865 32.1301" fill="none" xmlns="http://www.w3.org/2000/svg" xmlns:xlink="http://www.w3.org/1999/xlink">
	<desc>
			Created with Pixso.
	</desc>
	<defs/>
	<path id="Vector" d="M13.5563 0.864716L22.0004 9.26337L22.0004 31.2654L0.949707 31.2654L0.949707 0.864716L13.5563 0.864716Z" stroke="#F66249" stroke-opacity="1.000000" stroke-width="1.729411"/>
	<path id="Vector" d="M13.0811 0.811005L12 10.811L22 9.69989L13.0811 0.811005Z" fill="#F66249" fill-opacity="1.000000" fill-rule="evenodd"/>
	<rect id="Rectangle" y="17.609100" width="18.077387" height="9.036929" fill="#000000" fill-opacity="1.000000"/>
	<path id="STL" d="M5.64014 24.5893Q5.12646 24.5893 4.71118 24.4171Q4.37158 24.2738 4.14868 24.0255L4.14868 24.0255Q4.10376 23.9755 4.06372 23.9212Q4.00122 23.8366 3.95459 23.7441Q3.82251 23.4823 3.81738 23.1566L4.87305 23.1566Q4.88892 23.3803 5.00122 23.5333Q5.0376 23.5829 5.08423 23.625Q5.0918 23.6317 5.09961 23.6381Q5.29419 23.7972 5.6189 23.7972Q5.96387 23.7972 6.16089 23.6388C6.29224 23.5286 6.35791 23.3862 6.35791 23.2117Q6.35791 23.0655 6.29517 22.9548Q6.26636 22.9038 6.22412 22.8604C6.13501 22.7686 6.02246 22.6974 5.88647 22.6469Q5.68945 22.5643 5.3374 22.4678Q4.85889 22.3301 4.5564 22.1992Q4.49438 22.1703 4.43555 22.1356Q4.21484 22.0051 4.04248 21.7928Q3.83154 21.5173 3.83154 21.0627Q3.83154 20.7263 3.9668 20.4583Q4.00342 20.3861 4.04956 20.3188Q4.08862 20.2623 4.13306 20.2105Q4.33813 19.9725 4.66187 19.8367Q5.05591 19.6645 5.56274 19.6645Q6.32275 19.6645 6.79419 20.0296Q6.97607 20.1657 7.09595 20.3435Q7.2915 20.6338 7.32202 21.0352L6.23828 21.0352C6.229 20.8699 6.15625 20.7344 6.02002 20.6288Q6.01611 20.6254 6.01196 20.6221L6.01147 20.6217Q5.81592 20.4635 5.49219 20.4635Q5.21338 20.4635 5.03955 20.5987Q5.03369 20.6034 5.02783 20.6082Q4.99243 20.6385 4.96436 20.6747Q4.85889 20.8107 4.85889 21.0283Q4.85889 21.1442 4.90479 21.2378Q4.93506 21.2998 4.9856 21.352C5.07471 21.4347 5.18262 21.5036 5.30933 21.5587C5.44067 21.6092 5.62378 21.6689 5.85815 21.7377C6.17725 21.8296 6.43774 21.9214 6.6394 22.0132C6.84106 22.1051 7.01465 22.2428 7.16016 22.4265C7.30566 22.6102 7.37842 22.8513 7.37842 23.1497C7.37842 23.4069 7.3103 23.6457 7.17432 23.8661Q7.15698 23.8939 7.13843 23.9209Q6.93701 24.2135 6.57617 24.3964Q6.18188 24.5893 5.64014 24.5893ZM11.5753 19.7334L11.5753 20.5117L10.2664 20.5117L10.2664 24.5411L9.28101 24.5411L9.28101 20.5117L7.97217 20.5117L7.97217 19.7334L11.5753 19.7334ZM14.8981 23.7765L13.2794 23.7765L13.2794 19.7334L12.2942 19.7334L12.2942 24.5411L14.8981 24.5411L14.8981 23.7765Z" fill="#FFFFFF" fill-opacity="1.000000" fill-rule="evenodd"/>
</svg>
