<svg width="22.865234" height="32.130127" viewBox="0 0 22.8652 32.1301" fill="none" xmlns="http://www.w3.org/2000/svg" xmlns:xlink="http://www.w3.org/1999/xlink">
	<desc>
			Created with Pixso.
	</desc>
	<defs/>
	<path id="Vector" d="M13.5564 0.8647L22.0005 9.26334L22.0005 31.2654L0.949829 31.2654L0.949829 0.8647L13.5564 0.8647Z" stroke="#E0E0E0" stroke-opacity="1.000000" stroke-width="1.729411"/>
	<path id="Vector" d="M13.0811 0.810989L12 10.811L22 9.69987L13.0811 0.810989Z" fill="#E0E0E0" fill-opacity="1.000000" fill-rule="evenodd"/>
	<rect id="Rectangle" y="17.609085" width="18.077387" height="9.036929" fill="#000000" fill-opacity="1.000000"/>
	<path id="STL" d="M5.64014 24.5893Q5.12634 24.5893 4.71118 24.4171Q4.37146 24.2738 4.1488 24.0255L4.14868 24.0255Q4.10388 23.9755 4.06372 23.9211Q4.00122 23.8366 3.95459 23.7441Q3.82263 23.4823 3.81738 23.1566L4.87305 23.1566Q4.88892 23.3803 5.00122 23.5332Q5.0376 23.5828 5.08411 23.625Q5.0918 23.6316 5.09961 23.6381Q5.29431 23.7972 5.61902 23.7972Q5.96387 23.7972 6.16089 23.6387C6.29224 23.5285 6.35791 23.3862 6.35791 23.2117Q6.35791 23.0655 6.29517 22.9548Q6.26636 22.9038 6.22424 22.8604C6.13501 22.7686 6.02246 22.6974 5.88635 22.6469Q5.68933 22.5643 5.33752 22.4678Q4.85889 22.3301 4.55627 22.1992Q4.49426 22.1703 4.43567 22.1356Q4.21497 22.0051 4.0426 21.7928Q3.83142 21.5173 3.83142 21.0627Q3.83142 20.7263 3.9668 20.4583Q4.0033 20.3861 4.04956 20.3188Q4.08862 20.2623 4.13318 20.2105Q4.33813 19.9725 4.66187 19.8367Q5.05603 19.6645 5.56262 19.6645Q6.32275 19.6645 6.79419 20.0296Q6.97607 20.1656 7.09595 20.3435Q7.2915 20.6337 7.32202 21.0352L6.23828 21.0352C6.22888 20.8699 6.15613 20.7344 6.02014 20.6288Q6.01611 20.6254 6.01196 20.6221L6.01147 20.6217Q5.81592 20.4635 5.49231 20.4635Q5.21326 20.4635 5.03955 20.5987Q5.03369 20.6033 5.02783 20.6081Q4.99231 20.6385 4.96423 20.6747Q4.85889 20.8107 4.85889 21.0283Q4.85889 21.1442 4.90466 21.2377Q4.93506 21.2998 4.9856 21.352C5.07471 21.4347 5.18262 21.5035 5.30933 21.5586C5.44067 21.6091 5.62366 21.6689 5.85828 21.7377C6.17725 21.8296 6.43762 21.9214 6.6394 22.0132C6.84119 22.1051 7.01477 22.2428 7.16016 22.4265C7.30566 22.6102 7.3783 22.8512 7.3783 23.1497C7.3783 23.4069 7.3103 23.6456 7.17432 23.866Q7.1571 23.8939 7.13855 23.9209Q6.93701 24.2135 6.57605 24.3964Q6.18201 24.5893 5.64014 24.5893ZM11.5753 19.7334L11.5753 20.5117L10.2664 20.5117L10.2664 24.541L9.28113 24.541L9.28113 20.5117L7.97217 20.5117L7.97217 19.7334L11.5753 19.7334ZM14.8981 23.7765L13.2794 23.7765L13.2794 19.7334L12.2942 19.7334L12.2942 24.541L14.8981 24.541L14.8981 23.7765Z" fill="#FFFFFF" fill-opacity="1.000000" fill-rule="evenodd"/>
</svg>
