<svg width="90.000000" height="90.000000" viewBox="0 0 90 90" fill="none" xmlns="http://www.w3.org/2000/svg" xmlns:xlink="http://www.w3.org/1999/xlink">
	<desc>
			Created with Pixso.
	</desc>
	<defs>
		<clipPath id="clip2_65">
			<rect id="Frame" width="60.000000" height="60.000000" transform="translate(15.000000 14.000000)" fill="white" fill-opacity="0"/>
		</clipPath>
		<clipPath id="clip0_91">
			<rect id="icon/cube" rx="8.000000" width="90.000000" height="90.000000" fill="white" fill-opacity="0"/>
		</clipPath>
	</defs>
	<rect id="icon/cube" rx="8.000000" width="90.000000" height="90.000000" fill="#EDEDED" fill-opacity="1.000000"/>
	<g clip-path="url(#clip0_91)">
		<rect id="Frame" width="60.000000" height="60.000000" transform="translate(15.000000 14.000000)" fill="#FFFFFF" fill-opacity="0"/>
		<g clip-path="url(#clip2_65)">
			<path id="Vector" d="M41.1873 21.455L44.9993 17.6428L48.8115 21.455" stroke="#383A40" stroke-opacity="1.000000" stroke-width="3.093750" stroke-linejoin="round" stroke-linecap="round"/>
			<path id="Vector" d="M45 17.9135L45 31.2336" stroke="#383A40" stroke-opacity="1.000000" stroke-width="3.093750" stroke-linejoin="round"/>
			<path id="Vector" d="M72.3174 61.7524L73.7129 66.9598L68.5054 68.3552" stroke="#383A40" stroke-opacity="1.000000" stroke-width="3.093750" stroke-linejoin="round" stroke-linecap="round"/>
			<path id="Vector" d="M73.48 66.8246L62.6567 60.5763" stroke="#383A40" stroke-opacity="1.000000" stroke-width="3.093750" stroke-linejoin="round"/>
			<path id="Vector" d="M21.4966 68.3553L16.2891 66.9599L17.6843 61.7526" stroke="#383A40" stroke-opacity="1.000000" stroke-width="3.093750" stroke-linejoin="round" stroke-linecap="round"/>
			<path id="Vector" d="M16.5234 66.8246L27.3467 60.5763" stroke="#383A40" stroke-opacity="1.000000" stroke-width="3.093750" stroke-linejoin="round"/>
			<path id="Vector" d="M45.002 70.2401L45.002 50.7953M27.6665 41.1906L45.002 50.7953L62.4172 41.1465" stroke="#383A40" stroke-opacity="1.000000" stroke-width="3.093750" stroke-linejoin="round"/>
			<path id="Vector" d="M27.3433 41.0143L27.3433 60.5762L44.9966 70.3571L62.6499 60.5762L62.6499 41.0143L44.9966 31.2335L27.3433 41.0143Z" stroke="#383A40" stroke-opacity="1.000000" stroke-width="3.093750" stroke-linejoin="round"/>
		</g>
	</g>
</svg>
