<svg width="22.000000" height="22.000000" viewBox="0 0 22 22" fill="none" xmlns="http://www.w3.org/2000/svg" xmlns:xlink="http://www.w3.org/1999/xlink">
	<desc>
			Created with Pixso.
	</desc>
	<defs>
		<clipPath id="clip0_161">
			<rect id="Frame" width="22.000000" height="22.000000" fill="white" fill-opacity="0"/>
		</clipPath>
	</defs>
	<rect id="Frame" width="22.000000" height="22.000000" fill="#FFFFFF" fill-opacity="0"/>
	<g clip-path="url(#clip0_161)">
		<path id="Vector" d="M11 0L16.5 2.29166L11 4.58334L5.5 2.29166L11 0ZM10.0834 5.69067L5.5 3.78125L5.5 8.70834C5.5 8.80241 5.52893 8.89423 5.58289 8.97131C5.63684 9.04839 5.71313 9.10699 5.80164 9.13917L10.0834 10.6957L10.0834 5.69067ZM11.9166 5.69067L11.9166 10.6957L16.1984 9.13917C16.2869 9.10699 16.3632 9.04839 16.4171 8.97131C16.4711 8.89423 16.5 8.80241 16.5 8.70834L16.5 3.78125L11.9166 5.69067Z" fill="#FFFFFF" fill-opacity="1.000000" fill-rule="nonzero"/>
		<path id="Vector" d="M20.3959 3.66675L18.3334 3.66675L18.3334 5.50008L20.1666 5.50008L20.1666 15.5834L1.83337 15.5834L1.83337 5.50008L3.66663 5.50008L3.66663 3.66675L1.60413 3.66675C0.719604 3.66675 0 4.38633 0 5.27091L0 17.6459C0 18.5305 0.719604 19.2501 1.60413 19.2501L8.62402 19.2501C8.51587 19.7093 8.23071 20.4546 7.46716 21.2172C7.40332 21.2815 7.35999 21.3632 7.34241 21.4521C7.32495 21.541 7.33411 21.633 7.36877 21.7167C7.40344 21.8004 7.46216 21.8719 7.53735 21.9223C7.61267 21.9728 7.70105 21.9998 7.79163 22.0001L14.2084 22.0001C14.2991 22.0002 14.3878 21.9734 14.4634 21.9231C14.5389 21.8727 14.5978 21.8011 14.6326 21.7173C14.6674 21.6334 14.6764 21.5411 14.6587 21.4521C14.6409 21.3631 14.597 21.2813 14.5328 21.2172C13.7711 20.4555 13.4778 19.7103 13.3641 19.2501L20.3959 19.2501C21.2804 19.2501 22 18.5305 22 17.6459L22 5.27091C22 4.38633 21.2804 3.66675 20.3959 3.66675Z" fill="#FFFFFF" fill-opacity="1.000000" fill-rule="nonzero"/>
	</g>
</svg>
