<svg width="16.652344" height="20.505127" viewBox="0 0 16.6523 20.5051" fill="none" xmlns="http://www.w3.org/2000/svg" xmlns:xlink="http://www.w3.org/1999/xlink">
	<desc>
			Created with Pixso.
	</desc>
	<defs/>
	<path id="Arrow" d="M9.57617 1.25L9.57617 19.25L7.07617 19.25L7.07617 1.25L9.57617 1.25ZM7.09619 1.27002L7.07617 1.25C7.07617 0.550049 7.62622 0 8.32617 0C9.02612 0 9.57617 0.550049 9.57617 1.25L9.55615 1.27002L7.09619 1.27002ZM8.32617 17.4822L14.5133 11.2952C15.0083 10.8 15.7861 10.8 16.2811 11.2952C16.7761 11.79 16.7761 12.5679 16.2811 13.0627L9.21008 20.1338C8.71509 20.6289 7.93726 20.6289 7.44226 20.1338L0.371216 13.0627C-0.123779 12.5679 -0.123779 11.79 0.371216 11.2952C0.866211 10.8 1.64404 10.8 2.13904 11.2952L8.32617 17.4822Z" fill="#FFFFFF" fill-opacity="1.000000" fill-rule="evenodd"/>
</svg>
