<svg width="40.000000" height="40.000000" viewBox="0 0 40 40" fill="none" xmlns="http://www.w3.org/2000/svg" xmlns:xlink="http://www.w3.org/1999/xlink">
	<desc>
			Created with Pixso.
	</desc>
	<defs>
		<clipPath id="clip0_206">
			<rect id="Frame" width="40.000000" height="40.000000" fill="white" fill-opacity="0"/>
		</clipPath>
		<linearGradient id="paint_linear_0_208_0" x1="5.282814" y1="34.784912" x2="34.826775" y2="5.250359" gradientUnits="userSpaceOnUse">
			<stop stop-color="#FFDD55"/>
			<stop offset="0.500000" stop-color="#FF543E"/>
			<stop offset="1.000000" stop-color="#C837AB"/>
		</linearGradient>
	</defs>
	<rect id="Frame" width="40.000000" height="40.000000" fill="#FFFFFF" fill-opacity="0"/>
	<g clip-path="url(#clip0_206)">
		<path id="Vector" d="M5.21777 5.3606C2.55371 8.1272 3.09888 11.0664 3.09888 19.9949C3.09888 27.4097 1.80493 34.8428 8.5769 36.5925C10.6917 37.1362 29.4283 37.1362 31.5402 36.5898C34.3596 35.8623 36.6537 33.5759 36.9673 29.5889C37.0111 29.0325 37.0111 10.9675 36.9659 10.3997C36.6326 6.15283 34.0178 3.70532 30.5725 3.20947C29.7828 3.09521 29.6246 3.06128 25.5734 3.0542C11.203 3.06128 8.05286 2.42139 5.21777 5.3606Z" fill="url(#paint_linear_0_208_0)" fill-opacity="1.000000" fill-rule="nonzero"/>
		<path id="Vector" d="M20.0002 9.0105C15.4948 9.0105 11.2162 8.61011 9.58191 12.801C8.90698 14.5317 9.005 16.7798 9.005 19.9985C9.005 22.823 8.91443 25.4775 9.58191 27.1948C11.2125 31.3879 15.5258 30.9863 19.9978 30.9863C24.3123 30.9863 28.7607 31.4351 30.4148 27.1948C31.0912 25.4465 30.9918 23.2322 30.9918 19.9985C30.9918 15.7061 31.2289 12.9348 29.1455 10.8542C27.036 8.74658 24.1832 9.0105 19.9954 9.0105L20.0002 9.0105ZM19.015 10.9907C28.4133 10.9758 29.6095 9.93188 28.9493 24.4348C28.7148 29.5642 24.8062 29.0012 20.0015 29.0012C11.241 29.0012 10.9891 28.7507 10.9891 19.9934C10.9891 11.1345 11.684 10.9956 19.015 10.9883L19.015 10.9907ZM25.8695 12.8145C25.5198 12.8145 25.1842 12.9534 24.9369 13.2007C24.6895 13.4478 24.5505 13.783 24.5505 14.1326C24.5505 14.4822 24.6895 14.8174 24.9369 15.0645C25.1842 15.3118 25.5198 15.4504 25.8695 15.4504C26.2194 15.4504 26.5549 15.3118 26.8022 15.0645C27.0497 14.8174 27.1886 14.4822 27.1886 14.1326C27.1886 13.783 27.0497 13.4478 26.8022 13.2007C26.5549 12.9534 26.2194 12.8145 25.8695 12.8145ZM20.0002 14.3557C19.2588 14.3557 18.5245 14.502 17.8395 14.7854C17.1544 15.0691 16.532 15.4846 16.0077 16.0088C14.949 17.0669 14.3541 18.5022 14.3544 19.9985C14.3545 21.4949 14.9496 22.9299 16.0087 23.9878C17.0676 25.0459 18.5039 25.6401 20.0015 25.6399C21.499 25.6396 22.9352 25.0452 23.994 23.9871C25.0529 22.9287 25.6476 21.4937 25.6475 19.9973C25.6473 18.5007 25.0522 17.0659 23.9932 16.0078C22.9341 14.95 21.4978 14.3555 20.0002 14.3557ZM20.0002 16.3359C24.8458 16.3359 24.8521 23.6611 20.0002 23.6611C15.1559 23.6611 15.1484 16.3359 20.0002 16.3359Z" fill="#FFFFFF" fill-opacity="1.000000" fill-rule="nonzero"/>
	</g>
</svg>
